<svg version="1.1" id="Layer_1" xmlns="http://www.w3.org/2000/svg" xmlns:xlink="http://www.w3.org/1999/xlink" x="0px" y="0px"
	 width="100%" viewBox="0 0 1024 1024" enable-background="new 0 0 1024 1024" xml:space="preserve">
<path fill="#000000" opacity="1.000000" stroke="none" 
	d="
M804.653198,520.282349 
	C805.519958,507.747253 803.148193,495.992279 800.539001,484.308380 
	C798.164185,473.673553 793.565186,471.005798 781.300293,469.699432 
	C767.664978,468.247101 754.088867,469.202026 740.486328,469.145508 
	C739.820068,469.142761 739.012756,469.369110 738.508484,469.077850 
	C730.052185,464.193878 719.191956,465.564606 711.499573,458.620941 
	C709.726074,457.020020 708.124878,455.529633 707.450012,453.130035 
	C705.012329,444.462097 704.370178,435.787415 707.422485,427.158600 
	C711.094604,416.777405 719.581238,412.169250 729.563904,410.968719 
	C740.436401,409.661133 751.434143,409.207458 762.310059,407.749695 
	C766.734070,407.156708 771.111145,406.096832 775.448425,405.005981 
	C779.994080,403.862701 781.940674,400.795868 782.785156,396.083252 
	C784.509949,386.457855 784.028259,376.823334 783.671936,367.214142 
	C783.371155,359.104248 783.907349,350.992249 782.906982,342.849548 
	C782.349487,338.311493 780.755981,334.772522 777.701843,331.977539 
	C766.132080,321.389404 752.489136,315.660583 736.717285,314.884186 
	C725.067688,314.310730 713.666565,311.839874 702.240784,309.635956 
	C688.531006,306.991516 674.644836,304.822174 660.760315,304.703339 
	C649.991699,304.611115 639.154541,305.173065 628.337280,305.201721 
	C624.516602,305.211853 620.834351,304.316376 616.928772,304.555664 
	C609.314270,305.022186 604.984802,309.782135 601.047119,315.177734 
	C597.133484,320.540375 594.856689,326.985626 590.180664,331.890991 
	C588.588928,333.560822 589.233704,335.306091 590.645874,336.769745 
	C592.956238,339.164337 595.338562,341.489441 597.686768,343.847626 
	C601.931335,348.110168 605.976990,352.223419 604.628967,359.282532 
	C603.801270,363.616760 607.703918,366.019836 611.925049,364.528351 
	C622.274536,360.871552 632.726746,357.488098 642.976318,353.572418 
	C649.718323,350.996735 656.572815,350.689178 663.598633,350.847931 
	C667.808167,350.943085 670.923523,353.046539 673.439819,356.047363 
	C679.427307,363.187744 683.079407,371.227692 684.398865,380.675568 
	C686.933533,398.824127 683.285156,415.749084 675.976013,432.166595 
	C674.571167,435.322021 673.020264,438.473328 668.841980,439.076965 
	C666.334900,433.498596 666.880432,428.153015 668.353882,422.824341 
	C670.478027,415.142548 671.399780,407.425964 671.487000,399.380585 
	C671.537292,394.734497 671.641113,389.965179 671.485596,385.327087 
	C671.279907,379.195557 669.469116,373.049072 665.853821,368.070801 
	C662.124084,362.934998 656.379211,362.456421 650.446045,364.014343 
	C627.990173,369.910950 606.278809,377.704987 585.708008,388.615967 
	C576.292725,393.609863 566.544128,397.968384 558.468750,405.154480 
	C557.252930,406.236359 555.846924,407.277130 553.931580,406.654663 
	C550.959900,397.656311 557.095398,393.208954 563.051697,388.941193 
	C569.153748,384.569000 576.042480,381.508850 582.690735,378.055573 
	C584.560181,377.084503 586.651550,376.264740 588.084106,374.293365 
	C587.886475,373.724792 587.855530,372.915985 587.435913,372.533905 
	C577.329407,363.330566 569.706238,351.722473 558.294189,343.692627 
	C547.258789,335.927765 538.222534,325.731201 528.319275,316.590637 
	C527.708130,316.026581 527.187439,315.360413 526.554688,314.824493 
	C517.103027,306.819855 513.935730,306.782379 503.975922,314.166321 
	C494.698486,321.044434 486.702942,329.266052 478.940704,337.735779 
	C468.143616,349.517029 457.476440,361.411316 446.171295,372.725525 
	C440.179199,378.722473 435.968079,386.299652 429.750916,392.155396 
	C429.025696,392.838409 428.462952,393.717682 427.676056,394.307373 
	C424.209167,396.905457 419.911835,399.295288 416.224274,396.667358 
	C412.588379,394.076233 415.340393,389.893280 416.868011,386.732788 
	C422.541687,374.994659 429.847137,364.370392 438.435638,354.508148 
	C446.622711,345.106842 454.107269,335.096985 462.020172,325.452759 
	C472.351593,312.860931 482.984833,300.725037 496.518951,291.141846 
	C503.725037,286.039368 511.326904,287.120178 518.843994,285.837433 
	C525.791504,284.651886 531.432068,288.251617 537.082581,291.385468 
	C549.923401,298.507172 559.654785,309.375580 570.192993,319.260864 
	C571.866089,320.830261 573.081116,322.955505 575.601196,323.565552 
	C578.029846,322.505615 578.477722,320.030090 579.452148,318.003387 
	C583.858887,308.838226 588.594788,299.963593 595.019836,291.916016 
	C601.691833,283.559052 610.505127,279.623352 620.451538,279.047424 
	C633.723877,278.278900 647.019897,277.358185 660.360840,277.607452 
	C678.399353,277.944550 696.123779,280.502747 713.764587,284.014374 
	C722.225403,285.698578 730.917725,286.374176 739.303711,288.021759 
	C754.564697,291.019928 769.919434,294.431793 783.826721,302.046112 
	C784.702698,302.525696 785.571838,303.065948 786.510925,303.374969 
	C800.427429,307.954193 805.937378,317.917999 806.546936,332.168854 
	C807.300537,349.785248 808.561401,367.390228 808.137817,385.021484 
	C807.874390,395.983978 806.567749,406.828003 801.776367,417.055084 
	C798.205078,424.677826 792.359131,429.123016 784.560364,430.930145 
	C773.872070,433.406891 763.014343,434.865234 752.016296,435.503784 
	C743.581543,435.993500 735.110168,436.478882 726.760803,438.099030 
	C724.213501,438.593353 722.758667,439.826263 722.627808,442.264801 
	C722.481689,444.987305 724.773132,445.458923 726.730042,445.655762 
	C736.127930,446.601135 745.556702,448.233521 754.943787,448.049805 
	C767.723389,447.799713 780.415527,447.896759 793.031189,449.892548 
	C800.498779,451.073883 805.273438,455.656067 810.023010,461.684204 
	C821.830566,476.670563 824.562134,494.434662 826.529602,512.154907 
	C827.530029,521.165833 826.545898,530.897583 820.152283,539.164978 
	C814.768311,546.126831 807.587952,547.191162 799.949036,548.227539 
	C781.107361,550.783630 762.440979,548.042786 743.769287,546.268555 
	C735.198059,545.454041 733.109070,541.919495 734.947205,533.506409 
	C735.543274,530.778381 738.095642,530.285095 740.032166,530.545349 
	C751.990112,532.152100 763.906311,528.985046 775.877319,530.561279 
	C783.931091,531.621704 791.713806,528.965393 799.540771,527.515320 
	C802.964600,526.880981 803.829102,523.669617 804.653198,520.282349 
z"/>
<path fill="#000000" opacity="1.000000" stroke="none" 
	d="
M270.182678,617.704895 
	C269.934509,614.237671 268.574921,611.527527 267.545105,608.722168 
	C257.910919,582.477356 249.998764,555.679932 244.209686,528.372986 
	C239.974197,508.394257 238.257477,487.954956 236.563202,467.562561 
	C235.365433,453.146271 232.975845,438.790375 233.924332,424.285950 
	C234.997055,407.881866 234.243805,391.411346 236.341904,375.034424 
	C237.863129,363.160065 240.125732,351.484985 243.043213,339.900421 
	C244.078873,335.788086 246.035889,332.112732 248.253876,328.619110 
	C250.543564,325.012543 254.582764,323.189789 258.162781,325.132263 
	C261.107574,326.730103 263.059052,330.301117 261.278931,334.542267 
	C258.441986,341.301147 259.238983,348.658997 258.444489,355.731262 
	C255.127579,385.257202 255.744217,414.884186 257.581543,444.455658 
	C258.382111,457.339996 260.561768,470.149139 262.357880,482.958405 
	C264.593811,498.904877 267.090668,514.810608 270.848480,530.493896 
	C277.170959,556.880554 285.822784,582.569397 293.776276,608.476807 
	C299.300171,626.470154 305.729187,644.099609 312.571930,661.596375 
	C314.134735,665.592468 316.522034,669.284790 318.698425,673.018738 
	C325.809113,685.218079 333.240997,697.218262 341.327637,708.801758 
	C342.637390,710.677856 344.428253,711.562683 346.752777,711.910156 
	C363.092987,714.352478 379.281952,713.115601 395.184906,709.214539 
	C404.509857,706.927063 413.914795,704.821106 422.826721,700.785522 
	C430.057312,697.511230 433.450500,692.268921 433.540955,684.916504 
	C433.648163,676.200012 435.918427,667.504395 433.038666,658.677551 
	C431.961853,655.376953 433.817078,652.095154 436.834412,648.890076 
	C439.852020,645.684631 441.758057,645.595642 445.711426,645.493286 
	C449.642273,645.391479 454.289764,646.572937 458.434967,642.757385 
	C461.949890,639.521973 467.107941,641.382080 471.392975,644.064575 
	C489.170502,655.193542 506.412811,667.104797 523.516724,679.226562 
	C524.602051,679.995789 525.707092,680.745911 526.853149,681.419617 
	C536.867798,687.306885 540.400574,686.889587 549.011353,679.385742 
	C562.185120,667.905640 575.445923,656.525208 588.701294,645.139099 
	C596.969055,638.037354 603.795837,629.702148 610.070801,620.841309 
	C611.747742,618.473206 611.559875,616.604797 609.841370,614.595642 
	C604.442017,608.283020 599.859070,601.310425 593.567993,595.703247 
	C590.060425,592.576965 589.646362,588.520264 589.711609,583.361328 
	C589.831665,573.863708 598.929810,575.952759 602.367493,571.239929 
	C603.042847,570.314148 604.661072,571.170593 605.484802,572.008240 
	C617.852966,584.586426 630.726257,596.917542 636.345154,614.282776 
	C638.824402,621.945007 637.708069,629.396057 632.811829,636.527710 
	C624.739380,648.285522 615.322327,658.788391 604.808411,668.248535 
	C594.074829,677.906311 582.718018,686.870422 571.660583,696.169739 
	C567.849976,699.374451 564.416992,702.976929 559.913025,705.381958 
	C546.147095,712.732666 533.178040,709.333679 520.457153,702.714722 
	C508.220734,696.347778 498.679169,686.345825 487.778656,678.174500 
	C477.648499,670.580566 469.000854,661.344604 459.555817,653.162537 
	C457.919495,653.564087 458.218018,654.763489 458.366760,655.626831 
	C460.346100,667.116089 458.657013,678.520508 457.327332,689.874878 
	C455.026855,709.519775 444.964630,723.381958 425.666443,729.392944 
	C409.795105,734.336548 393.796539,738.439270 377.001251,739.667847 
	C365.906555,740.479431 355.121979,739.383911 344.216034,738.501465 
	C335.334137,737.782776 329.627838,731.708191 323.864258,726.038513 
	C310.366028,712.760681 301.523560,696.103577 293.217834,679.558350 
	C283.413452,660.027771 275.154602,639.621033 270.182678,617.704895 
z"/>
<path fill="#000000" opacity="1.000000" stroke="none" 
	d="
M595.799622,714.039795 
	C592.332153,710.372131 592.345215,707.056519 595.818481,704.251038 
	C596.806396,703.453186 597.183105,702.751709 597.309448,701.420227 
	C597.581177,698.555847 598.781616,697.134521 602.311340,698.080505 
	C605.544373,698.946838 608.969421,697.137634 612.452454,697.505066 
	C626.407166,698.977295 640.233276,698.618652 654.055847,695.546326 
	C661.944031,693.793152 670.061584,693.212952 678.294495,693.546753 
	C691.304016,694.074158 704.012207,690.396667 716.892639,689.541809 
	C732.083313,688.533508 746.152588,683.423462 760.410156,679.267212 
	C771.091797,676.153320 781.459351,671.254944 790.147644,663.729614 
	C793.262207,661.031982 795.235291,657.786072 796.284973,653.721008 
	C801.111633,635.028870 800.531128,616.148315 798.657532,597.193726 
	C798.342957,594.011230 796.712280,592.384399 793.469604,592.384399 
	C781.824951,592.384399 770.201538,593.005371 758.630188,594.185608 
	C753.304504,594.728821 748.959900,593.862610 745.307983,589.680786 
	C744.285706,588.510132 742.907288,587.415405 741.605042,586.443359 
	C737.680176,583.513550 735.455017,580.722168 739.981995,576.265747 
	C741.521606,574.750061 741.236755,572.076843 739.118591,570.502502 
	C730.594666,564.167053 722.976501,556.446655 712.948608,552.368286 
	C696.887878,545.836304 680.245300,545.621155 663.504944,548.917053 
	C659.139648,549.776550 654.587585,549.769592 650.375488,551.601379 
	C648.420654,552.451538 646.600647,551.190735 645.942932,549.414612 
	C645.107056,547.157410 646.773987,545.152405 648.575867,544.655334 
	C653.840820,543.202820 658.143616,538.481323 663.395752,538.597290 
	C669.103149,538.723267 674.145569,537.418762 679.576965,536.374268 
	C691.284790,534.122681 702.573975,537.876709 713.656433,541.887878 
	C723.745972,545.539673 731.115662,552.682983 738.471802,559.904480 
	C741.294250,562.675232 744.021667,565.744751 743.323608,570.997009 
	C749.527405,568.644958 755.210388,568.599670 760.777222,568.155396 
	C777.453247,566.824341 794.190857,565.384583 810.887451,567.658020 
	C817.217346,568.519958 820.461365,572.622925 821.205566,579.144897 
	C823.319336,597.667175 825.080505,616.221802 824.196472,634.892090 
	C823.603699,647.412415 820.952637,659.655457 816.975586,671.461243 
	C814.380310,679.165283 808.368286,684.888123 801.947632,689.757019 
	C793.033447,696.516724 782.884644,701.384827 772.248718,704.229309 
	C759.496399,707.639771 746.893982,711.681396 733.593018,713.336365 
	C718.134155,715.259827 702.969971,719.434570 687.351807,720.588318 
	C682.902893,720.916931 678.438416,721.066284 673.978210,721.203796 
	C660.687927,721.613464 647.470520,723.272095 634.215271,723.836487 
	C623.306152,724.300964 612.279724,723.467590 601.646545,720.250305 
	C598.620422,719.334656 598.880493,715.306213 595.799622,714.039795 
z"/>
<path fill="#000000" opacity="1.000000" stroke="none" 
	d="
M453.382416,456.343750 
	C458.269836,453.436829 462.740479,450.523560 467.461456,448.097473 
	C469.775726,446.908203 472.846497,444.895264 475.090637,447.794342 
	C477.193787,450.511322 476.701050,453.729095 474.583740,456.584534 
	C470.919983,461.525330 466.058838,465.338654 461.032257,470.725952 
	C465.343567,474.648468 469.699219,478.239227 473.611938,482.260864 
	C479.086975,487.888367 480.688354,495.183929 479.819092,502.585602 
	C478.715179,511.985504 476.780670,521.403687 472.184448,529.820618 
	C467.553101,538.302002 461.613586,545.981689 454.055786,552.060791 
	C448.085083,556.863281 441.120453,558.568420 433.400055,556.346680 
	C423.124939,553.389587 413.591339,549.446777 407.882324,539.595276 
	C407.632965,539.164917 407.406128,538.587646 407.013306,538.393555 
	C396.763489,533.330933 399.013824,522.711853 397.510956,514.489929 
	C395.910614,505.734741 397.157562,496.299103 402.692078,488.258545 
	C404.933899,485.001709 402.539001,483.907928 399.732849,483.280243 
	C394.673004,482.148407 389.632751,480.947876 386.986847,475.758148 
	C388.796051,472.430542 391.499451,471.542999 395.187775,471.641327 
	C406.300079,471.937653 416.778076,468.396729 427.415161,465.807129 
	C436.316376,463.640167 445.153687,461.391724 453.382416,456.343750 
M415.377808,505.910492 
	C415.632507,513.293213 417.959106,520.128784 421.161682,526.663330 
	C422.160767,528.701904 423.197845,531.820374 426.612793,529.985474 
	C429.470093,528.450195 430.335419,525.877930 429.243561,522.778381 
	C428.748810,521.373901 428.099304,520.024597 427.556610,518.636047 
	C425.166473,512.520752 424.205841,506.188080 424.676300,499.635590 
	C424.900818,496.508575 424.110535,493.761353 420.579010,493.348999 
	C416.813202,492.909271 416.602203,496.211029 416.051086,498.708221 
	C415.592621,500.785522 415.590271,502.963501 415.377808,505.910492 
M440.247833,543.016663 
	C446.503540,544.587952 451.460876,541.848877 453.040680,535.944702 
	C449.211212,531.623230 444.325012,532.039612 439.450958,533.163513 
	C435.875946,533.987793 435.155701,536.152161 437.897888,538.806641 
	C438.998566,539.872192 440.244110,540.656006 440.247833,543.016663 
M448.228058,500.193634 
	C446.173950,499.411926 444.920990,496.851379 442.108887,497.683899 
	C439.524475,498.449036 437.766846,499.617584 437.368195,502.601562 
	C436.802582,506.835785 438.768890,509.649200 442.171875,511.407593 
	C444.378357,512.547729 446.457397,511.147095 447.652191,509.224121 
	C449.284729,506.596771 452.350952,503.978882 448.228058,500.193634 
z"/>
<path fill="#000000" opacity="1.000000" stroke="none" 
	d="
M587.573425,452.962341 
	C606.987610,461.358856 615.801453,476.555634 614.438843,497.647644 
	C613.806091,507.441833 611.871277,516.657471 607.098328,525.326050 
	C597.140381,543.411804 586.703552,548.487488 566.496948,544.957275 
	C556.513977,543.213196 549.357361,537.784729 543.612671,529.576965 
	C534.242310,516.189148 530.974976,501.333374 535.336121,486.002625 
	C542.178162,461.951263 562.076111,447.624969 587.573425,452.962341 
M559.520203,464.087860 
	C550.293518,473.189972 549.126038,484.812775 549.472229,496.822388 
	C549.527283,498.732300 550.570435,501.112549 552.999573,500.941833 
	C555.753601,500.748260 557.202087,498.743378 557.670532,495.920715 
	C559.350464,485.798096 560.059387,475.371643 567.052551,466.128784 
	C564.238647,465.630035 564.379883,459.869843 559.520203,464.087860 
M566.796570,531.379089 
	C568.617554,529.354919 568.976562,527.626160 566.549133,525.544434 
	C564.315125,523.628479 562.445740,521.241028 560.629028,518.895996 
	C557.958008,515.448242 554.744629,514.035645 550.450500,515.544434 
	C549.896423,519.693726 550.789612,523.626831 552.024475,527.598938 
	C554.507446,535.586121 560.002197,537.321350 566.796570,531.379089 
M568.387146,502.126068 
	C572.910156,504.871033 577.220398,503.751953 580.610962,498.952423 
	C583.635742,494.670624 583.148804,491.876373 578.898315,488.246155 
	C576.390991,486.104736 573.993164,484.572388 570.417603,486.176666 
	C567.093201,487.668335 567.181396,490.306885 566.957764,493.171143 
	C566.733276,496.044769 567.018433,498.773071 568.387146,502.126068 
z"/>
<path fill="#000000" opacity="1.000000" stroke="none" 
	d="
M281.665039,307.312683 
	C292.277161,305.267975 302.527435,303.409760 312.741180,301.368500 
	C315.558411,300.805511 318.348328,300.704193 321.176147,300.746948 
	C331.326569,300.900482 341.437958,300.626648 351.539307,299.327179 
	C364.772858,297.624786 377.774384,299.818787 390.330109,303.647797 
	C399.168945,306.343292 404.083191,313.830109 407.206177,322.192902 
	C412.979401,337.652679 413.706696,354.019989 415.066833,370.210693 
	C415.505005,375.426544 414.537170,380.807007 413.801788,386.054626 
	C413.452057,388.550293 412.754578,391.277557 410.210968,392.781464 
	C407.998505,391.972076 408.740814,389.202576 406.431976,388.447388 
	C403.459778,392.979126 400.551697,392.230408 397.848114,387.806641 
	C397.443939,387.145294 396.637848,386.473022 395.905090,386.309113 
	C389.336182,384.839874 390.224060,379.870514 390.371521,375.071228 
	C390.796631,361.234802 389.843048,347.604095 385.241241,334.334137 
	C383.512543,329.349335 380.243866,327.925629 375.632477,327.241394 
	C363.248230,325.403870 350.808899,326.378601 338.394958,326.034119 
	C319.543365,325.511047 300.993225,328.976807 282.236603,329.512634 
	C277.266144,329.654633 272.308380,329.002197 267.306671,329.794495 
	C264.160645,330.292847 262.634949,326.881531 263.602814,323.789673 
	C266.397552,314.861786 274.935242,312.371399 281.665039,307.312683 
z"/>
<path fill="#000000" opacity="1.000000" stroke="none" 
	d="
M479.734375,555.847900 
	C479.278412,542.060974 484.981323,532.417786 496.855042,526.303040 
	C505.434509,521.884827 517.080261,528.562988 517.051758,538.303833 
	C517.028259,546.328979 513.749023,553.507507 509.670563,560.246521 
	C507.698761,563.504700 505.388367,566.597412 502.927490,569.508179 
	C500.753296,572.079895 501.029144,574.164185 503.115295,576.516174 
	C504.703552,578.306885 506.456696,579.920959 508.753479,580.468994 
	C519.031982,582.921631 529.299011,583.551086 538.617981,577.492981 
	C547.656494,571.617188 557.520081,566.904907 565.350159,559.274658 
	C569.161987,555.560120 572.863403,559.243164 576.315979,559.767761 
	C578.820862,560.148376 577.964172,564.302490 577.240662,566.901611 
	C574.879333,575.384827 570.681824,582.570557 562.487549,586.637939 
	C557.253845,589.235718 552.478027,592.549011 547.510864,595.569153 
	C532.158997,604.903503 516.561829,603.885010 500.881714,596.415466 
	C497.926056,595.007507 496.026672,592.436096 494.005341,590.003479 
	C492.645782,588.367310 491.680725,586.321350 489.066711,585.323303 
	C483.739594,589.167969 478.233826,593.137939 472.732208,597.113647 
	C470.016388,599.076294 467.111023,600.696777 463.922089,601.730225 
	C460.660706,602.787170 457.311737,602.932800 456.021210,599.072937 
	C454.965088,595.913940 456.861633,593.423096 459.712311,591.975769 
	C467.199219,588.174438 473.767426,583.101440 479.821350,577.374695 
	C485.110596,572.371338 485.223328,571.519897 481.817505,564.923462 
	C480.388702,562.156189 479.758087,559.344910 479.734375,555.847900 
M494.240112,547.999756 
	C494.532867,551.321350 493.257141,554.838379 495.476349,558.414917 
	C500.420197,554.408691 502.128113,548.808044 504.593719,543.710632 
	C505.407166,542.028992 506.029327,540.078857 503.945129,538.872986 
	C501.889130,537.683472 499.761719,537.945190 498.058411,539.731873 
	C496.071869,541.815735 494.826416,544.310303 494.240112,547.999756 
z"/>
<path fill="#000000" opacity="1.000000" stroke="none" 
	d="
M430.934753,416.543396 
	C438.700226,415.842468 445.828156,417.155334 452.687256,419.950012 
	C455.331390,421.027344 457.403351,422.714783 456.331665,426.052094 
	C455.355225,429.092773 453.272430,430.056915 450.111542,429.427185 
	C437.193451,426.853699 424.790253,431.124908 412.201050,432.603577 
	C396.572784,434.439148 381.051239,437.171448 365.434448,439.123383 
	C361.275818,439.643158 360.161743,441.294220 360.168549,445.143433 
	C360.189972,457.232452 362.919952,468.886658 365.525330,480.558777 
	C367.592926,489.821655 370.169769,498.950775 374.163940,507.604706 
	C375.943726,511.460938 374.633301,514.283203 371.428650,516.823914 
	C365.364563,513.229004 363.502197,506.687408 360.315979,501.229675 
	C351.273224,485.740326 348.666077,468.190460 345.148010,451.006836 
	C343.908508,444.952667 345.683624,438.766693 347.326904,432.881012 
	C348.157532,429.905914 350.327484,427.534393 353.458588,426.015564 
	C357.304504,424.150024 361.018738,422.022766 363.166748,417.815674 
	C365.051422,414.124359 367.811707,414.849976 369.607513,417.960938 
	C371.144073,420.622772 373.167877,421.102295 375.856628,420.863007 
	C390.417816,419.567230 404.983032,418.317139 419.546326,417.044922 
	C421.364227,416.886108 423.481171,416.175018 424.899109,417.342041 
	C427.309418,419.325989 428.805084,417.541534 430.934753,416.543396 
z"/>
<path fill="#000000" opacity="1.000000" stroke="none" 
	d="
M538.797974,449.824585 
	C537.573730,451.428894 536.703125,452.871307 535.590149,454.092804 
	C534.137878,455.686646 532.371399,457.664520 530.113586,456.623444 
	C528.141968,455.714355 527.654480,453.262939 527.474976,451.082367 
	C527.067261,446.130188 528.981140,442.401367 532.554626,438.814240 
	C542.353577,428.977844 552.205017,419.530792 565.948608,415.177612 
	C580.749207,410.489624 593.972839,412.185181 606.002808,422.570740 
	C613.183105,428.769623 620.219116,435.071503 626.770874,441.928925 
	C628.743347,443.993439 629.153625,445.791046 626.877563,447.847198 
	C624.954285,449.584595 623.471436,452.150055 620.242004,449.669220 
	C614.585449,445.323975 608.610657,441.403809 602.814392,437.257477 
	C584.418457,424.098022 568.228149,426.555695 552.763428,437.985229 
	C547.960876,441.534668 543.604431,445.687683 538.797974,449.824585 
z"/>
<path fill="#000000" opacity="1.000000" stroke="none" 
	d="
M699.383911,515.562988 
	C684.568665,512.767578 671.404114,517.774719 658.116516,522.016968 
	C651.962036,523.981934 645.804138,525.936340 639.800659,527.846863 
	C637.862854,526.684509 639.426208,524.172424 637.203613,523.161560 
	C633.095581,521.293091 634.299438,518.926086 637.242554,517.003418 
	C652.550598,507.003113 669.248047,500.717468 687.566956,499.853546 
	C695.448669,499.481812 703.154541,502.136261 709.855469,506.255310 
	C715.901123,509.971527 722.804688,512.038574 728.427673,516.448853 
	C729.473389,517.269043 730.665283,517.954651 731.545227,518.924194 
	C733.503601,521.082214 733.423584,523.498718 731.735474,525.750000 
	C729.998108,528.067139 727.849243,527.122009 725.932434,526.021790 
	C717.714478,521.305054 708.938293,518.023438 699.383911,515.562988 
z"/>
<path fill="#000000" opacity="1.000000" stroke="none" 
	d="
M279.787628,291.939117 
	C276.038788,293.330322 272.732208,295.378204 269.677338,293.395050 
	C267.245972,295.575134 265.058472,297.546356 262.856537,299.501282 
	C262.486328,299.829956 262.027985,300.371674 261.653778,300.337646 
	C252.837753,299.536255 245.259781,305.835297 236.382523,304.713837 
	C234.518051,304.478302 233.559662,303.737915 233.942719,301.842316 
	C235.031235,296.455658 235.888062,291.012024 241.610229,288.085693 
	C245.325851,286.185486 245.110641,281.754272 246.666016,278.545319 
	C249.417450,272.868744 255.475540,270.891144 261.390991,272.766083 
	C267.402832,274.671600 273.729645,275.799103 279.872711,277.521820 
	C285.205627,279.017334 290.874847,279.420349 294.957550,283.851227 
	C296.021942,285.006378 297.464935,284.768372 298.680450,284.172974 
	C302.625885,282.240387 304.903442,283.997620 306.554291,287.739441 
	C304.872559,291.301514 299.523804,288.477112 298.536072,292.913300 
	C291.331848,285.774048 291.331848,285.774048 279.787628,291.939117 
z"/>
<path fill="#000000" opacity="1.000000" stroke="none" 
	d="
M403.695007,622.695557 
	C396.980927,628.939575 389.960388,634.325012 383.986816,640.852173 
	C382.643066,642.320435 381.195221,643.682800 379.196625,644.332642 
	C377.051697,645.030029 374.908356,645.492493 373.041290,643.890564 
	C370.693054,641.875793 373.120605,640.180786 373.818909,638.631409 
	C378.459869,628.333679 386.626617,620.819824 394.497284,613.111145 
	C403.284393,604.504761 412.148163,595.976318 421.026733,587.464172 
	C422.703033,585.857056 424.576630,584.449036 426.409607,583.013489 
	C429.057190,580.940002 431.974091,579.280090 434.765350,582.448853 
	C437.236847,585.254578 437.146454,588.843933 434.914703,591.576843 
	C426.188690,602.262146 417.532166,613.062500 405.951294,620.951782 
	C405.264557,621.419617 404.626373,621.958801 403.695007,622.695557 
z"/>
<path fill="#000000" opacity="1.000000" stroke="none" 
	d="
M642.443726,588.121338 
	C640.385315,582.924194 643.173035,580.485413 647.272400,578.881592 
	C652.687439,576.763062 658.146851,577.985535 663.489624,579.115234 
	C674.365723,581.414917 685.312744,583.430969 695.670471,587.778687 
	C705.581970,591.939148 714.642639,597.334778 722.446533,604.749146 
	C723.519287,605.768372 724.408813,607.015076 725.228943,608.258179 
	C726.969666,610.897034 726.348389,613.462646 724.317505,615.520325 
	C722.139648,617.726990 720.228516,615.418945 718.643799,614.412903 
	C714.051331,611.497498 709.718140,608.177307 705.222473,605.104736 
	C696.926086,599.434631 687.081238,598.019836 677.705505,595.452454 
	C668.119507,592.827515 658.283264,591.310059 648.304199,591.140686 
	C645.894714,591.099731 643.579956,591.260071 642.443726,588.121338 
z"/>
<path fill="#000000" opacity="1.000000" stroke="none" 
	d="
M375.814453,558.850037 
	C367.344391,565.315918 358.412781,570.577637 350.891296,577.704163 
	C347.376617,581.034302 344.006348,584.500854 342.031494,589.007385 
	C340.585571,592.306824 338.354950,593.519775 334.868713,592.395264 
	C331.051025,591.163818 330.188812,588.261963 330.957520,584.867981 
	C332.912292,576.237183 337.963409,569.395203 344.696198,564.018188 
	C355.484314,555.402344 367.043701,547.844055 378.879547,540.727661 
	C379.447845,540.385986 380.060883,540.118042 380.655701,539.821045 
	C383.953369,538.174683 387.965637,537.764587 389.458160,541.139465 
	C390.689453,543.923706 390.515198,548.074280 386.879730,550.568359 
	C383.182343,553.104919 379.686218,555.934875 375.814453,558.850037 
z"/>
<path fill="#000000" opacity="1.000000" stroke="none" 
	d="
M362.945709,610.936829 
	C360.842438,612.891846 359.337006,614.850952 357.998993,616.988892 
	C355.386871,621.162781 351.555084,622.587158 348.504333,620.695618 
	C346.260895,619.304626 345.644531,613.300659 348.790009,610.867371 
	C353.050171,607.571777 353.871063,601.932495 358.182465,599.077881 
	C364.914917,594.620300 368.934875,586.879150 376.809509,583.830444 
	C377.398163,583.602478 378.058075,583.138611 378.340759,582.602966 
	C382.986908,573.797485 392.632080,571.084595 399.565674,565.084167 
	C402.585724,562.470520 405.549347,562.353577 407.472473,565.772217 
	C408.989441,568.468872 408.466858,571.803162 406.018341,574.066223 
	C394.408569,584.796936 382.428040,595.097717 369.907837,604.765076 
	C367.553192,606.583191 365.438171,608.711670 362.945709,610.936829 
z"/>
<path fill="#000000" opacity="1.000000" stroke="none" 
	d="
M570.585815,493.311951 
	C571.355774,492.684296 572.035461,492.377258 572.352051,491.851562 
	C573.312744,490.256042 573.701721,487.430389 576.405518,489.077637 
	C578.494690,490.350464 578.160034,492.779938 577.428223,494.924774 
	C576.716003,497.012177 575.457581,498.541595 573.047668,497.862274 
	C571.016357,497.289612 568.510559,496.672974 570.585815,493.311951 
z"/>
</svg>